<svg width="26" height="26" viewBox="0 0 26 26" fill="none" xmlns="http://www.w3.org/2000/svg">
<g clip-path="url(#clip0_11_1889)">
<path d="M0 10C0 4.47715 4.47715 0 10 0H26V16C26 21.5228 21.5228 26 16 26H0V10Z" fill="url(#paint0_linear_11_1889)"/>
<g clip-path="url(#clip1_11_1889)">
<path d="M19.3716 11.8024L14.0736 15.7207L18.2364 17.4963C18.613 17.042 18.9216 16.5355 19.1527 15.9926C19.7211 14.6662 19.7985 13.1808 19.3716 11.8024ZM12.4723 19.6062C14.5409 19.9762 16.6515 19.2432 18.0493 17.7113L11.9549 15.1114L12.4723 19.6062ZM8.84698 9.70112C8.47041 10.1555 8.16176 10.662 7.93067 11.205C7.36334 12.5304 7.28551 14.0143 7.71107 15.3918L13.0099 11.4775L8.84698 9.70112ZM7.80142 15.6623C8.35531 17.2027 9.52414 18.5169 11.1477 19.2097C11.4849 19.3536 11.8343 19.467 12.1917 19.5487L11.4359 12.9766L7.80142 15.6623ZM19.2812 11.5321C18.7265 9.99332 17.5585 8.67969 15.9357 7.98778C15.5769 7.83484 15.2044 7.71643 14.8231 7.63414L15.6459 14.2216L19.2812 11.5321ZM14.5425 7.58028C12.4957 7.23821 10.4161 7.97122 9.03407 9.4869L15.1036 12.0759L14.5425 7.58028Z" fill="#B4BCFF" fill-opacity="0.79"/>
<path d="M13.5 21C9.36445 21 6 17.6357 6 13.5C6 9.36425 9.36425 6 13.5 6C17.6358 6 21 9.36425 21 13.5C21 17.6357 17.6358 21 13.5 21ZM13.5 6.56586C9.676 6.56586 6.56566 9.677 6.56566 13.5002C6.56566 17.3242 9.6768 20.4345 13.5 20.4345C17.324 20.4353 20.4351 17.3242 20.4351 13.5002C20.4351 9.677 17.324 6.56586 13.5 6.56586Z" fill="#B4BCFF" fill-opacity="0.79"/>
</g>
</g>
<defs>
<linearGradient id="paint0_linear_11_1889" x1="0" y1="26" x2="26" y2="0" gradientUnits="userSpaceOnUse">
<stop stop-color="#FFD78C" stop-opacity="0.75"/>
<stop offset="1" stop-color="#FFE5B4" stop-opacity="0.75"/>
</linearGradient>
<clipPath id="clip0_11_1889">
<rect width="26" height="26" fill="white"/>
</clipPath>
<clipPath id="clip1_11_1889">
<rect width="15" height="15" fill="white" transform="translate(6 6)"/>
</clipPath>
</defs>
</svg>
