<svg width="209" height="41" viewBox="0 0 209 41" fill="none" xmlns="http://www.w3.org/2000/svg">
<g clip-path="url(#clip0_14_1918)">
<g clip-path="url(#clip1_14_1918)">
<path d="M70.0116 14.3329V10.7484H54V30.2483H58.8336V22.5277H68.5241V18.9304H58.8336V14.3329H70.0116ZM76.9744 29.3321C78.6124 30.1096 80.5411 30.5 82.7607 30.5C84.9802 30.5 86.9123 30.1064 88.5503 29.3256C90.1882 28.5448 91.4484 27.406 92.3375 25.9057C93.2234 24.4087 93.6679 22.6084 93.6679 20.4984C93.6679 18.3916 93.2267 16.5881 92.3442 15.0911C91.4618 13.594 90.2016 12.4519 88.5636 11.6712C86.9257 10.8904 84.9903 10.5 82.7607 10.5C80.5411 10.5 78.6124 10.8872 76.9744 11.6647C75.3365 12.4422 74.0763 13.5811 73.1938 15.0782C72.3114 16.5752 71.8668 18.3819 71.8668 20.4984C71.8668 22.6149 72.3114 24.4216 73.1938 25.9218C74.0763 27.4189 75.3365 28.5545 76.9744 29.3321ZM87.1697 25.2669C86.1335 26.3122 84.6627 26.8349 82.7607 26.8349C80.842 26.8349 79.3678 26.309 78.3383 25.254C77.3087 24.2022 76.7973 22.5858 76.7973 20.408C76.7973 18.3238 77.3188 16.7623 78.365 15.7234C79.4113 14.6813 80.8787 14.1619 82.7607 14.1619C84.6527 14.1619 86.1201 14.6942 87.163 15.7621C88.206 16.8301 88.7274 18.44 88.7274 20.592C88.7274 22.6633 88.2093 24.2216 87.1697 25.2669ZM97.1611 11.1324V30.2483H101.995V24.5571C102.86 24.599 103.623 24.6216 104.288 24.6216C107.473 24.6216 109.86 24.0312 111.455 22.8439C113.046 21.6566 113.845 19.8918 113.845 17.5463C113.845 15.133 113.029 13.3553 111.401 12.2196C109.77 11.0807 107.3 10.5129 103.987 10.5129C101.657 10.5129 99.384 10.7194 97.1611 11.1324ZM107.106 20.9662C106.4 21.2243 105.474 21.3566 104.328 21.3566C103.502 21.3566 102.723 21.3082 101.995 21.2114V13.9651C102.777 13.8425 103.592 13.7812 104.438 13.7812C106.059 13.7812 107.249 14.0812 108.015 14.6813C108.78 15.2846 109.161 16.2429 109.161 17.5592C109.161 18.4658 108.994 19.195 108.663 19.7467C108.329 20.3016 107.811 20.7081 107.106 20.9662ZM119.35 28.2577C120.884 29.7515 123.308 30.5 126.62 30.5C129.876 30.5 132.27 29.7515 133.801 28.2577C135.328 26.7671 136.094 24.5474 136.094 21.605V10.7484H131.344V22.0019C131.344 23.6441 130.956 24.8475 130.184 25.6186C129.408 26.3864 128.222 26.7704 126.62 26.7704C125.019 26.7704 123.829 26.3864 123.05 25.6186C122.272 24.8475 121.884 23.6441 121.884 22.0019V10.7484H117.05V21.605C117.05 24.5474 117.819 26.7671 119.35 28.2577ZM139.627 29.6031C141.612 30.2 143.772 30.5 146.112 30.5C147.95 30.5 149.535 30.258 150.868 29.7741C152.202 29.2901 153.225 28.5932 153.934 27.6802C154.642 26.7671 155 25.6799 155 24.4248C155 23.4247 154.779 22.5568 154.338 21.8244C153.894 21.0888 153.185 20.4661 152.205 19.9531C151.229 19.4369 149.939 19.0304 148.338 18.7336L146.657 18.4174C145.948 18.2754 145.396 18.1174 144.999 17.9431C144.604 17.7657 144.323 17.5495 144.16 17.2914C143.996 17.0301 143.916 16.7075 143.916 16.3235C143.916 15.6008 144.273 15.0523 144.985 14.6684C145.701 14.2877 146.887 14.0974 148.542 14.0974C149.488 14.0974 150.437 14.1587 151.387 14.2877C152.339 14.4135 153.182 14.5878 153.92 14.8071V11.1324C152.292 10.7097 150.461 10.5 148.432 10.5C145.366 10.5 143.053 11.0162 141.492 12.0486C139.931 13.0778 139.152 14.5555 139.152 16.4816C139.152 18.0173 139.644 19.2466 140.633 20.1628C141.619 21.0791 143.21 21.747 145.403 22.1599L147.068 22.4761C147.887 22.6245 148.525 22.7923 148.98 22.9762C149.434 23.1601 149.755 23.3827 149.949 23.6473C150.14 23.9118 150.233 24.2506 150.233 24.6636C150.233 25.3992 149.919 25.9573 149.294 26.3348C148.666 26.7123 147.619 26.9026 146.152 26.9026C145.142 26.9026 144.033 26.8155 142.823 26.6445C141.612 26.4735 140.546 26.238 139.627 25.9412V29.6031Z" fill="url(#paint0_linear_14_1918)"/>
</g>
<path d="M0 10.5C0 4.97715 4.47715 0.5 10 0.5H40V30.5C40 36.0228 35.5228 40.5 30 40.5H0V10.5Z" fill="url(#paint1_linear_14_1918)"/>
<g clip-path="url(#clip2_14_1918)">
<path d="M30.2857 18.1708L21.4557 24.7014L28.3939 27.6606C29.0214 26.9035 29.5359 26.0593 29.921 25.1545C30.8683 22.9438 30.9974 20.4681 30.2857 18.1708ZM18.787 31.1771C22.2346 31.7937 25.7524 30.5721 28.082 28.019L17.9247 23.6858L18.787 31.1771ZM12.7448 14.6686C12.1171 15.4259 11.6027 16.2702 11.2176 17.1752C10.272 19.3842 10.1423 21.8574 10.8516 24.1532L19.6829 17.6293L12.7448 14.6686ZM11.0022 24.604C11.9253 27.1713 13.8734 29.3617 16.5793 30.5162C17.1413 30.756 17.7236 30.9452 18.3193 31.0813L17.0597 20.1278L11.0022 24.604ZM30.1351 17.7203C29.2106 15.1557 27.2639 12.9663 24.5593 11.8131C23.9613 11.5582 23.3404 11.3608 22.705 11.2237L24.0763 22.2028L30.1351 17.7203ZM22.2373 11.1339C18.8259 10.5638 15.36 11.7855 13.0566 14.3116L23.1724 18.6265L22.2373 11.1339Z" fill="white"/>
<path d="M20.5 33.5C13.6074 33.5 8 27.8929 8 21C8 14.1071 13.6071 8.5 20.5 8.5C27.3929 8.5 33 14.1071 33 21C33 27.8929 27.3929 33.5 20.5 33.5ZM20.5 9.4431C14.1267 9.4431 8.94277 14.6283 8.94277 21.0003C8.94277 27.3737 14.128 32.5576 20.5 32.5576C26.8733 32.5589 32.0586 27.3737 32.0586 21.0003C32.0586 14.6283 26.8733 9.4431 20.5 9.4431Z" fill="white"/>
</g>
</g>
<defs>
<linearGradient id="paint0_linear_14_1918" x1="74.0696" y1="49.8709" x2="132.775" y2="-10.9517" gradientUnits="userSpaceOnUse">
<stop stop-color="#678CFF"/>
<stop offset="1" stop-color="#0033CC"/>
</linearGradient>
<linearGradient id="paint1_linear_14_1918" x1="0" y1="40.5" x2="40" y2="0.5" gradientUnits="userSpaceOnUse">
<stop stop-color="#678CFF"/>
<stop offset="1" stop-color="#0033CC"/>
</linearGradient>
<clipPath id="clip0_14_1918">
<rect width="209" height="40" fill="white" transform="translate(0 0.5)"/>
</clipPath>
<clipPath id="clip1_14_1918">
<rect width="101" height="20" fill="white" transform="translate(54 10.5)"/>
</clipPath>
<clipPath id="clip2_14_1918">
<rect width="25" height="25" fill="white" transform="translate(8 8.5)"/>
</clipPath>
</defs>
</svg>
