<svg width="18" height="18" viewBox="0 0 18 18" fill="none" xmlns="http://www.w3.org/2000/svg">
<g clip-path="url(#clip0_24_1170)">
<path d="M9 0C4.0372 0 0 4.0372 0 9C0 13.9628 4.0372 18 9 18C13.9628 18 18 13.9628 18 9C18 4.0372 13.9628 0 9 0Z" fill="#F44336"/>
<path d="M12.3143 11.2537C12.6075 11.547 12.6075 12.021 12.3143 12.3143C12.2448 12.384 12.1621 12.4393 12.0711 12.477C11.98 12.5147 11.8825 12.5341 11.784 12.534C11.592 12.534 11.4 12.4605 11.2537 12.3143L9.00004 10.0604L6.74635 12.3143C6.67679 12.384 6.59414 12.4394 6.50314 12.4771C6.41214 12.5148 6.31459 12.5341 6.21609 12.534C6.11758 12.5341 6.02002 12.5148 5.929 12.4771C5.83799 12.4394 5.75533 12.384 5.68576 12.3143C5.39255 12.021 5.39255 11.547 5.68576 11.2537L7.93959 8.99998L5.68572 6.74629C5.39252 6.45295 5.39252 5.97901 5.68572 5.6857C5.97907 5.39249 6.45301 5.39249 6.74635 5.6857L9.00004 7.93953L11.2537 5.68566C11.5471 5.39246 12.021 5.39246 12.3143 5.68566C12.6075 5.97901 12.6075 6.45295 12.3143 6.74629L10.0605 8.99998L12.3143 11.2537Z" fill="#FAFAFA"/>
</g>
<defs>
<clipPath id="clip0_24_1170">
<rect width="18" height="18" fill="white"/>
</clipPath>
</defs>
</svg>
