<svg width="14" height="13" viewBox="0 0 14 13" fill="none" xmlns="http://www.w3.org/2000/svg">
<path fill-rule="evenodd" clip-rule="evenodd" d="M4.21919 0C5.45997 0 6.46731 1.00734 6.46731 2.24813C6.46731 3.48891 5.45997 4.49625 4.21919 4.49625C2.97841 4.49625 1.97106 3.48891 1.97106 2.24813C1.97106 1.00734 2.97841 0 4.21919 0ZM7.38888 6.34266C8.01557 5.83035 8.80037 5.55091 9.60981 5.55188C11.55 5.55188 13.1254 7.12734 13.1254 9.0675C13.1254 11.0077 11.55 12.5831 9.60981 12.5831C7.66966 12.5831 6.09419 11.0077 6.09419 9.0675C6.09419 7.83984 6.72653 6.88312 7.38888 6.34266ZM9.142 10.7892C9.14934 10.9071 9.20093 11.0179 9.28646 11.0994C9.37198 11.1809 9.48513 11.2271 9.60326 11.2288C9.7214 11.2305 9.8358 11.1875 9.92358 11.1084C10.0114 11.0293 10.066 10.92 10.0767 10.8023C10.1118 10.7934 10.1461 10.7831 10.1789 10.7714C10.612 10.6181 10.9251 10.2848 10.9251 9.705C10.9251 9.13734 10.5365 8.84531 9.99138 8.68641C9.80247 8.63109 9.59434 8.59078 9.41247 8.52984C9.36163 8.51414 9.31248 8.49341 9.26575 8.46797C9.25122 8.45953 9.232 8.45484 9.232 8.43563C9.232 8.29266 9.34403 8.23969 9.46309 8.22328C9.71754 8.19403 9.97415 8.25544 10.1878 8.39672C10.2383 8.43196 10.2952 8.45691 10.3553 8.47016C10.4154 8.4834 10.4776 8.48467 10.5382 8.4739C10.5988 8.46312 10.6567 8.44052 10.7086 8.40737C10.7604 8.37422 10.8053 8.33118 10.8405 8.2807C10.8758 8.23023 10.9007 8.1733 10.914 8.11318C10.9272 8.05306 10.9285 7.99092 10.9177 7.93031C10.9069 7.8697 10.8843 7.8118 10.8512 7.75992C10.818 7.70805 10.775 7.66321 10.7245 7.62797C10.5277 7.49503 10.3086 7.39865 10.0776 7.34344C10.0685 7.22656 10.0159 7.11734 9.93021 7.03729C9.84454 6.95725 9.73202 6.91217 9.61479 6.91094C9.49755 6.9097 9.3841 6.9524 9.29677 7.03062C9.20945 7.10885 9.15457 7.21693 9.14294 7.33359C8.88184 7.40531 8.66059 7.54547 8.50919 7.74937C8.37888 7.92422 8.2945 8.14922 8.2945 8.43563C8.2945 9.00328 8.6831 9.29531 9.22825 9.45422C9.41716 9.50953 9.62528 9.54984 9.80716 9.61078C9.86013 9.62859 9.91028 9.64781 9.95388 9.67266C9.96841 9.68109 9.98763 9.68578 9.98763 9.705C9.98763 9.84656 9.87653 9.89625 9.75888 9.91219C9.50198 9.94005 9.24328 9.87918 9.02575 9.73969C8.97472 9.70525 8.91741 9.68119 8.85708 9.6689C8.79675 9.65661 8.7346 9.65632 8.67416 9.66805C8.5521 9.69174 8.44445 9.76295 8.37489 9.86602C8.30533 9.96908 8.27957 10.0955 8.30326 10.2176C8.32695 10.3397 8.39816 10.4473 8.50122 10.5169C8.68169 10.6387 8.90575 10.732 9.142 10.7892ZM6.15653 11.8781C4.63966 11.88 2.57013 11.88 1.40997 11.88C1.04869 11.8801 0.701229 11.7411 0.439601 11.492C0.177972 11.2428 0.0222327 10.9026 0.00465615 10.5417L0.00418733 10.5286C-0.0197124 9.3996 0.0587333 8.27077 0.238562 7.15594C0.358094 6.43125 0.97825 5.52 1.61013 5.13516L1.68653 5.08922C1.7653 5.04212 1.85619 5.01922 1.94787 5.02339C2.03955 5.02756 2.12799 5.0586 2.20216 5.11266C2.78528 5.53641 3.50294 5.78625 4.27825 5.78625C5.05356 5.78625 5.77122 5.53641 6.35434 5.11266C6.42814 5.05908 6.51596 5.0282 6.60705 5.02378C6.69813 5.01937 6.78853 5.04162 6.86716 5.08781L6.94638 5.13516C7.03309 5.18766 7.11934 5.25 7.20419 5.31984C7.06276 5.41098 6.92661 5.51004 6.79638 5.61656C5.95731 6.30094 5.15669 7.51313 5.15669 9.0675C5.15669 10.133 5.53169 11.1113 6.15653 11.8781Z" fill="black"/>
</svg>
