<svg width="18" height="18" viewBox="0 0 18 18" fill="none" xmlns="http://www.w3.org/2000/svg">
<g clip-path="url(#clip0_24_1177)">
<path d="M9 0C7.21997 0 5.47991 0.527841 3.99987 1.51677C2.51983 2.50571 1.36628 3.91131 0.685088 5.55585C0.00389951 7.20038 -0.17433 9.00998 0.172937 10.7558C0.520203 12.5016 1.37737 14.1053 2.63604 15.364C3.89472 16.6226 5.49836 17.4798 7.24419 17.8271C8.99002 18.1743 10.7996 17.9961 12.4442 17.3149C14.0887 16.6337 15.4943 15.4802 16.4832 14.0001C17.4722 12.5201 18 10.78 18 9C18 6.61305 17.0518 4.32387 15.364 2.63604C13.6761 0.948212 11.387 0 9 0ZM14.5013 5.79938L7.99875 12.5494C7.87569 12.6772 7.72681 12.7773 7.56203 12.843C7.39724 12.9087 7.22035 12.9386 7.04312 12.9306C6.86589 12.9226 6.69239 12.877 6.53419 12.7967C6.37599 12.7164 6.23671 12.6033 6.12563 12.465L3.47063 9.16313C3.41275 9.07568 3.38951 8.96981 3.40544 8.86617C3.42137 8.76252 3.47534 8.66852 3.55681 8.6025C3.63828 8.53647 3.74143 8.50316 3.84613 8.50906C3.95083 8.51495 4.04958 8.55963 4.12313 8.63438L6.75 11.9194C6.79005 11.963 6.83873 11.9979 6.89296 12.0217C6.94718 12.0455 7.00577 12.0579 7.065 12.0579C7.12424 12.0579 7.18283 12.0455 7.23705 12.0217C7.29128 11.9979 7.33996 11.963 7.38 11.9194L13.8825 5.16937C14.2706 4.82625 14.8894 5.41125 14.5013 5.79938Z" fill="url(#paint0_linear_24_1177)"/>
</g>
<defs>
<linearGradient id="paint0_linear_24_1177" x1="15.3619" y1="15.3619" x2="2.63813" y2="2.63813" gradientUnits="userSpaceOnUse">
<stop stop-color="#8000FF"/>
<stop offset="1" stop-color="#D4A9FF"/>
</linearGradient>
<clipPath id="clip0_24_1177">
<rect width="18" height="18" fill="white"/>
</clipPath>
</defs>
</svg>
