<svg width="82" height="82" viewBox="0 0 82 82" fill="none" xmlns="http://www.w3.org/2000/svg">
<path d="M78.998 14.844L67.1528 2.99876C66.9372 2.78309 66.6812 2.61201 66.3995 2.49528C66.1177 2.37856 65.8158 2.31848 65.5108 2.31848C65.2059 2.31848 64.9039 2.37856 64.6222 2.49528C64.3405 2.61201 64.0845 2.78309 63.8689 2.99876L40.9985 25.8692L18.1282 2.99876C17.9126 2.78309 17.6566 2.61201 17.3749 2.49528C17.0931 2.37856 16.7912 2.31848 16.4862 2.31848C16.1813 2.31848 15.8793 2.37856 15.5976 2.49528C15.3159 2.61201 15.0599 2.78309 14.8443 2.99876L2.99912 14.844C2.78345 15.0596 2.61237 15.3156 2.49565 15.5973C2.37893 15.879 2.31885 16.181 2.31885 16.4859C2.31885 16.7909 2.37893 17.0929 2.49565 17.3746C2.61237 17.6563 2.78345 17.9123 2.99912 18.1279L25.8695 40.9984L2.99912 63.8688C2.78345 64.0844 2.61237 64.3404 2.49565 64.6221C2.37893 64.9039 2.31885 65.2058 2.31885 65.5108C2.31885 65.8157 2.37893 66.1177 2.49565 66.3994C2.61237 66.6811 2.78345 66.9371 2.99912 67.1527L14.8443 78.998C15.0599 79.2136 15.3159 79.3847 15.5976 79.5014C15.8793 79.6182 16.1813 79.6782 16.4862 79.6782C16.7912 79.6782 17.0931 79.6182 17.3749 79.5014C17.6566 79.3847 17.9126 79.2136 18.1282 78.998L40.9985 56.1275L63.8689 78.998C64.0845 79.2136 64.3405 79.3847 64.6222 79.5014C64.9039 79.6182 65.2059 79.6782 65.5108 79.6782C65.8158 79.6782 66.1177 79.6182 66.3995 79.5014C66.6812 79.3847 66.9372 79.2136 67.1528 78.998L78.998 67.1527C79.2136 66.9371 79.3847 66.6811 79.5014 66.3994C79.6181 66.1177 79.6782 65.8157 79.6782 65.5108C79.6782 65.2058 79.6181 64.9039 79.5014 64.6221C79.3847 64.3404 79.2136 64.0844 78.998 63.8688L56.1276 40.9984L78.998 18.1279C79.2136 17.9123 79.3847 17.6563 79.5014 17.3746C79.6181 17.0929 79.6782 16.7909 79.6782 16.4859C79.6782 16.181 79.6181 15.879 79.5014 15.5973C79.3847 15.3156 79.2136 15.0596 78.998 14.844Z" fill="#F74343"/>
<path d="M16.4869 82C15.8768 82.0014 15.2725 81.8819 14.7088 81.6484C14.1451 81.4148 13.6334 81.0719 13.2031 80.6393L1.3579 68.7953C0.489108 67.9233 0.00118464 66.7426 0.000944504 65.5117C0.000704371 64.2808 0.488167 63.0999 1.35662 62.2276L22.5857 40.9984L1.3579 19.7705C0.488562 18.899 0.000240267 17.7184 8.86397e-08 16.4875C-0.00024009 15.2566 0.487621 14.0758 1.35662 13.204L13.2018 1.35877C14.0736 0.48952 15.2545 0.00139422 16.4857 0.00139422C17.7168 0.00139422 18.8977 0.48952 19.7695 1.35877L40.9986 22.588L62.2277 1.35749C63.0995 0.488381 64.2803 0.000240243 65.5113 8.86542e-08C66.7423 -0.000240065 67.9232 0.48744 68.7954 1.35621L80.6393 13.2015C81.5157 14.0791 82 15.2451 82 16.4866C82 17.7282 81.5157 18.8941 80.6393 19.7718L59.4128 40.9984L80.6393 62.2276C81.5095 63.0989 81.9983 64.28 81.9983 65.5115C81.9983 66.7429 81.5095 67.924 80.6393 68.7953L68.7954 80.6393C67.9241 81.5095 66.743 81.9983 65.5115 81.9983C64.2801 81.9983 63.099 81.5095 62.2277 80.6393L40.9986 59.4127L19.7708 80.6393C19.3405 81.0719 18.8287 81.4148 18.2651 81.6484C17.7014 81.8819 17.0971 82.0014 16.4869 82ZM40.9986 53.8059C41.5931 53.8059 42.1863 54.0327 42.6399 54.4862L65.5103 77.3554L77.3542 65.5115L54.4851 42.641C54.2694 42.4254 54.0983 42.1694 53.9816 41.8877C53.8649 41.606 53.8048 41.304 53.8048 40.999C53.8048 40.6941 53.8649 40.3921 53.9816 40.1104C54.0983 39.8287 54.2694 39.5727 54.4851 39.3571L77.3542 16.4866L65.5103 4.64136L42.6399 27.5119C42.4243 27.7275 42.1683 27.8986 41.8866 28.0153C41.6049 28.1321 41.3029 28.1921 40.998 28.1921C40.693 28.1921 40.3911 28.1321 40.1093 28.0153C39.8276 27.8986 39.5716 27.7275 39.356 27.5119L16.4857 4.64136L4.64047 16.4866L27.5108 39.3571C27.7265 39.5727 27.8976 39.8287 28.0143 40.1104C28.131 40.3921 28.1911 40.6941 28.1911 40.999C28.1911 41.304 28.131 41.606 28.0143 41.8877C27.8976 42.1694 27.7265 42.4254 27.5108 42.641L4.64047 65.5115L16.4857 77.3554L39.356 54.4862C39.5716 54.2703 39.8277 54.0991 40.1095 53.9824C40.3914 53.8656 40.6935 53.8057 40.9986 53.8059Z" fill="#5E0000"/>
</svg>
