<svg width="64" height="65" viewBox="0 0 64 65" fill="none" xmlns="http://www.w3.org/2000/svg">
<path d="M33.2623 64.9999C24.5732 64.9999 16.24 61.5758 10.0958 55.4809C3.95173 49.3859 0.5 41.1195 0.5 32.4999C0.5 23.8804 3.95173 15.6139 10.0958 9.51901C16.24 3.42409 24.5732 0 33.2623 0C33.9306 0 34.5717 0.263391 35.0443 0.732231C35.5169 1.20107 35.7824 1.83696 35.7824 2.5C35.7824 3.16304 35.5169 3.79892 35.0443 4.26776C34.5717 4.7366 33.9306 4.99999 33.2623 4.99999C25.9099 4.99999 18.8588 7.8973 13.6599 13.0545C8.46104 18.2118 5.54035 25.2065 5.54035 32.4999C5.54035 39.7934 8.46104 46.7881 13.6599 51.9453C18.8588 57.1026 25.9099 59.9999 33.2623 59.9999C36.9359 60.0119 40.5745 59.2924 43.9627 57.8839C47.3508 56.4753 50.4195 54.4065 52.9868 51.7999C53.4591 51.3269 54.1015 51.0595 54.7727 51.0563C55.4438 51.0532 56.0887 51.3147 56.5655 51.7832C57.0422 52.2518 57.3119 52.889 57.315 53.5548C57.3182 54.2205 57.0546 54.8603 56.5823 55.3332C53.5409 58.405 49.9111 60.8426 45.9063 62.5027C41.9015 64.1627 37.6026 65.0118 33.2623 64.9999Z" fill="url(#paint0_linear_24_920)"/>
<path d="M32.2542 44C31.9231 44.0015 31.595 43.9375 31.2892 43.8115C30.9833 43.6856 30.7059 43.5003 30.4733 43.2666L17.0323 29.9333C16.5872 29.4594 16.3448 28.8326 16.3563 28.1849C16.3679 27.5373 16.6324 26.9193 17.0941 26.4613C17.5558 26.0032 18.1788 25.7408 18.8317 25.7294C19.4846 25.718 20.1164 25.9584 20.5942 26.4L32.2542 37.9666L59.136 11.3C59.3668 11.0544 59.645 10.8574 59.9541 10.7208C60.2633 10.5841 60.597 10.5106 60.9354 10.5047C61.2738 10.4988 61.6099 10.5605 61.9237 10.6863C62.2375 10.812 62.5226 10.9992 62.7619 11.2366C63.0012 11.474 63.1898 11.7567 63.3166 12.068C63.4433 12.3793 63.5056 12.7128 63.4996 13.0484C63.4936 13.3841 63.4196 13.7152 63.2818 14.0218C63.1441 14.3285 62.9455 14.6045 62.6979 14.8334L34.1359 43.1666C33.902 43.4326 33.6125 43.6449 33.2875 43.7888C32.9626 43.9327 32.61 44.0048 32.2542 44Z" fill="url(#paint1_linear_24_920)"/>
<defs>
<linearGradient id="paint0_linear_24_920" x1="36.3622" y1="-4.90487e-07" x2="23.4702" y2="65.3536" gradientUnits="userSpaceOnUse">
<stop offset="0.221666" stop-color="#61CD86" stop-opacity="0.94"/>
<stop offset="1" stop-color="#117D29" stop-opacity="0.6"/>
</linearGradient>
<linearGradient id="paint1_linear_24_920" x1="46.1138" y1="10.5043" x2="41.8907" y2="44.9756" gradientUnits="userSpaceOnUse">
<stop offset="0.221666" stop-color="#61CD86" stop-opacity="0.94"/>
<stop offset="1" stop-color="#117D29" stop-opacity="0.6"/>
</linearGradient>
</defs>
</svg>
